<svg xmlns="http://www.w3.org/2000/svg" viewBox="0 0 834.83 56.09"><defs><style>.cls-1,.cls-2{fill:#dd078c;}.cls-1{opacity:0.6;}.cls-2{opacity:0.47;}</style></defs><title>Asset 1</title><g id="Layer_2" data-name="Layer 2"><g id="Layer_1-2" data-name="Layer 1"><path class="cls-1" d="M834.83,0V22.78c-41.75,0-41.75,20-83.49,20s-41.74-20-83.49-20-41.74,20-83.48,20-41.74-20-83.48-20-41.75,20-83.49,20-41.74-20-83.48-20-41.74,20-83.48,20-41.74-20-83.48-20-41.74,20-83.48,20-41.74-20-83.48-20V0Z"/><path class="cls-2" d="M834.83,44.15C815.6,32.71,788.16,21,759.15,27.33c-26.76,5.82-30.81,21.72-55.7,27.33C664.76,63.38,653,29.83,603.59,24.18c-39.24-4.5-53,14.24-86.81,22.53-14.17,3.48-23.7,5-36.17,3.74-26.68-2.7-39.87-16.77-54.89-23.83-33.7-15.84-61.15,10.83-108.27,21-99.28,21.47-137-62.42-210.22-31.53C74.24,30,43.15,63.48,11.11,50.65A44.59,44.59,0,0,1,0,44.15V0H834.83Z"/></g></g></svg>