<svg xmlns="http://www.w3.org/2000/svg" viewBox="0 0 834.83 141.87"><defs><style>.cls-1,.cls-2{fill:#dd078c;}.cls-1{opacity:0.6;}.cls-2{opacity:0.47;}</style></defs><title>Asset 2</title><g id="Layer_2" data-name="Layer 2"><g id="Layer_1-2" data-name="Layer 1"><path class="cls-1" d="M0,141.87V84.26c41.75,0,41.75-50.59,83.49-50.59S125.23,84.26,167,84.26s41.74-50.59,83.48-50.59,41.74,50.59,83.48,50.59,41.75-50.59,83.49-50.59,41.74,50.59,83.48,50.59,41.74-50.59,83.48-50.59,41.74,50.59,83.48,50.59,41.74-50.59,83.48-50.59,41.74,50.59,83.48,50.59v57.61Z"/><path class="cls-2" d="M0,30.22C19.23,59.15,46.67,88.7,75.68,72.75,102.44,58,106.49,17.83,131.39,3.64c38.68-22,50.45,62.78,99.85,77.09,39.24,11.36,53-36,86.81-57,14.17-8.79,23.7-12.65,36.17-9.46,26.68,6.83,39.87,42.41,54.9,60.28,33.7,40.06,61.14-27.4,108.26-53.17,99.28-54.3,137,157.87,210.22,79.75,33-35.23,64.08-119.82,96.12-87.36,5.06,5.12,8.8,11.78,11.11,16.45V141.87H0Z"/></g></g></svg>